<?xml version="1.0"?>
<svg xmlns="http://www.w3.org/2000/svg" viewBox="0 0 320 90" width="320" height="90">
  <defs>
    <linearGradient id="bg" x1="0%" y1="0%" x2="100%" y2="100%">
      <stop offset="0%" stop-color="#0A2463"></stop>
      <stop offset="100%" stop-color="#1756C8"></stop>
    </linearGradient>
    <radialGradient id="glow" cx="75%" cy="25%" r="50%">
      <stop offset="0%" stop-color="#FFD93D" stop-opacity="0.28"></stop>
      <stop offset="70%" stop-color="#FFD93D" stop-opacity="0"></stop>
    </radialGradient>
  </defs>
  <rect x="0" y="0" width="320" height="90" rx="0" fill="#0A2463"></rect>
  <rect x="8" y="4" width="82" height="82" rx="18" fill="url(#bg)" stroke="rgba(255,255,255,0.12)" stroke-width="1"></rect>
  <rect x="8" y="4" width="82" height="82" rx="18" fill="url(#glow)"></rect>
  
    <ellipse cx="49" cy="47" rx="18" ry="24" fill="#FFFFFF"></ellipse>
    <path d="M 49 26 L 49 68" stroke="rgba(10,36,99,0.4)" stroke-width="2" fill="none" stroke-linecap="round"></path>
    <line x1="45" y1="33" x2="53" y2="33" stroke="rgba(10,36,99,0.4)" stroke-width="1.5" stroke-linecap="round"></line>
    <line x1="45" y1="39" x2="53" y2="39" stroke="rgba(10,36,99,0.4)" stroke-width="1.5" stroke-linecap="round"></line>
    <line x1="45" y1="47" x2="53" y2="47" stroke="rgba(10,36,99,0.4)" stroke-width="1.5" stroke-linecap="round"></line>
    <line x1="45" y1="55" x2="53" y2="55" stroke="rgba(10,36,99,0.4)" stroke-width="1.5" stroke-linecap="round"></line>
    <line x1="45" y1="61" x2="53" y2="61" stroke="rgba(10,36,99,0.4)" stroke-width="1.5" stroke-linecap="round"></line>
    <ellipse cx="43" cy="39" rx="2.5" ry="5" fill="rgba(255,255,255,0.45)"></ellipse>
  
  <circle cx="78" cy="16" r="4" fill="#FFD93D"></circle>
  <text x="106" y="62" font-family="&#39;Montserrat&#39;,&#39;Arial Black&#39;,sans-serif" font-weight="900" font-size="44" fill="#FFFFFF" letter-spacing="-1.5">Jago</text>
  <text x="108" y="80" font-family="&#39;Montserrat&#39;,sans-serif" font-weight="500" font-size="9" fill="rgba(255,255,255,0.55)" letter-spacing="1.5">·  COMMERCE ENTRE PARTICULIERS  ·</text>
</svg>